HIERARCHY
ROOT pelvis
{
  OFFSET 0 100 0
  CHANNELS 6 Xposition Yposition Zposition Zrotation Xrotation Yrotation
  JOINT pelvis_right_femur
  {
    OFFSET -10.78128 -3.44521 -0.5502486
    CHANNELS 3 Zrotation Xrotation Yrotation
    JOINT right_femur_tibia
    {
      OFFSET -0.8047443 -44.0398 -0.1307829
      CHANNELS 3 Zrotation Xrotation Yrotation
      JOINT right_tibia_foot
      {
        OFFSET 3.006224 -47.83518 -5
        CHANNELS 3 Zrotation Xrotation Yrotation
        End Site
        {
          OFFSET 0 -5 15
        }
      }
    }
  }
  JOINT pelvis_left_femur
  {
    OFFSET 10.78128 -3.44521 -0.5502486
    CHANNELS 3 Zrotation Xrotation Yrotation
    JOINT left_femur_tibia
    {
      OFFSET 0.8047443 -44.0398 -0.1307829
      CHANNELS 3 Zrotation Xrotation Yrotation
      JOINT left_tibia_foot
      {
        OFFSET -4.370144 -48.10324 -4.275266
        CHANNELS 3 Zrotation Xrotation Yrotation
        End Site
        {
          OFFSET 0 -5 15
        }
      }
    }
  }
  JOINT pelvis_spine1
  {
    OFFSET 0 6.468898 -3.129235
    CHANNELS 3 Zrotation Xrotation Yrotation
    JOINT spine1
    {
      OFFSET 0 23.15396 4.99043
      CHANNELS 3 Zrotation Xrotation Yrotation
      JOINT spine2
      {
        OFFSET 0 20.79997 -5.064912
        CHANNELS 3 Zrotation Xrotation Yrotation
        JOINT neck
        {
          OFFSET 0 14.38658 9.616178
          CHANNELS 3 Zrotation Xrotation Yrotation
          End Site
          {
            OFFSET 0 20 0
          }
        }
      }
      JOINT right_manubrium
      {
        OFFSET -5.722621 16.35077 3.967754
        CHANNELS 3 Zrotation Xrotation Yrotation
        JOINT right_clavicle
        {
          OFFSET -13.16364 1.694482 -4.693211
          CHANNELS 3 Zrotation Xrotation Yrotation
          JOINT right_humerus
          {
            OFFSET -28.5034 -0.3100689 -2.792744
            CHANNELS 3 Zrotation Xrotation Yrotation
            JOINT right_radius
            {
              OFFSET -25.15693 0.02248979 -1.271978
              CHANNELS 3 Zrotation Xrotation Yrotation
              End Site
              {
                OFFSET -15 0 0
              }
            }
          }
        }
      }
      JOINT left_manubrium
      {
        OFFSET 5.722621 16.35077 3.967754
        CHANNELS 3 Zrotation Xrotation Yrotation
        JOINT left_clavicle
        {
          OFFSET 13.16364 1.694482 -4.693211
          CHANNELS 3 Zrotation Xrotation Yrotation
          JOINT left_humerus
          {
            OFFSET 29.39168 -1.063119 -2.237045
            CHANNELS 3 Zrotation Xrotation Yrotation
            JOINT left_radius
            {
              OFFSET 24.59957 -0.9528479 0.9047498
              CHANNELS 3 Zrotation Xrotation Yrotation
              End Site
              {
                OFFSET 15 -0 -0
              }
            }
          }
        }
      }
    }
  }
}
MOTION
Frames: 7
Frame Time: 0.0416666666667
24.11035 102.0377 245.7458 -0.0118035 -2.519693 -0.159765 5.537105 3.733797 9.789513 -0 16.88493 -0 4.681399 -16.21408 -4.083927 4.273557 -27.76597 2.734028 -0 31.57044 -0 -8.157967 -8.454703 19.72277 0.9100632 -4.996636 9.361254 -1.768872 13.66066 -2.814422 1.802187 18.97608 5.17959 1.184066 -14.15612 5.968959 2.725398 -22.56515 12.18902 79.22118 18.62878 -11.11146 -0 0 19.94427 -22.0812 12.56399 18.19794 3.161888 -18.62419 -2.005134 -87.94096 19.29641 23.47315 0 0 -17.32188 -2.634369 6.132544 14.76447
24.98661 101.0194 251.6332 -0.02561464 -2.674318 -0.6958215 5.088223 6.679561 9.650409 -0 18.44662 -0 4.999337 -17.5836 -3.519023 5.164149 -30.93988 2.404378 -0 25.6991 -0 -8.500184 -8.685946 18.96286 1.000278 -4.233067 9.433886 -2.157531 13.17185 -2.60794 1.824375 18.67011 5.029338 0.8466536 -14.15556 6.027737 2.281152 -23.5247 12.03526 78.29178 17.34446 -9.369936 -0 0 22.89017 -22.90769 12.00433 18.64518 2.745789 -17.92296 -2.091678 -88.44844 19.49124 24.6198 0 0 -15.92696 -3.266272 5.830928 15.83427
25.92043 99.87349 257.7304 -0.02935312 -2.714811 -0.8476781 4.850543 8.685773 9.369359 -0 20.79477 -0 5.460501 -17.78233 -2.99432 4.027763 -32.12301 1.265565 -0 22.96792 -0 -8.205095 -9.622613 18.14078 0.979545 -3.858181 9.53498 -2.35867 12.60305 -2.522649 1.936041 18.54909 4.89121 0.5933036 -14.1232 6.148885 2.077967 -24.54354 11.80382 77.49145 16.16736 -7.944069 -0 0 25.33011 -23.62593 11.52521 18.84032 2.258214 -17.15606 -2.182805 -88.85086 19.73014 25.51605 0 0 -14.50132 -3.827438 5.54455 16.86283
27.07942 99.0516 264.5019 -0.0304991 -2.735673 -0.9374349 4.032088 11.4078 9.282921 -0 25.07032 -0 6.094145 -16.95001 -2.853295 2.273271 -31.25055 -0.5101167 -0 23.65692 -0 -8.135593 -9.53463 17.35776 0.8338102 -4.298603 9.528871 -2.415307 12.35456 -2.625157 2.240644 18.69076 4.70209 0.492198 -13.9752 6.324306 1.783986 -24.50235 11.25418 77.73715 15.23704 -7.778239 -0 0 26.72075 -24.01834 11.13626 18.47989 1.992602 -16.25255 -2.131229 -89.166 19.98628 26.11679 0 0 -13.3622 -4.27784 5.29549 17.7326
28.36777 98.79586 271.6793 -0.0321212 -2.782759 -1.113364 3.170954 12.34921 8.735961 -0 30.34082 -0 6.728135 -14.03476 -3.596308 1.221398 -29.2468 -1.903222 -0 25.89777 -0 -8.00279 -9.708956 16.74457 0.56075 -5.140023 9.413933 -2.488099 12.42474 -2.749124 2.668431 19.01244 4.460054 0.5038724 -13.7441 6.500144 1.456412 -23.37695 10.66221 78.84927 14.6318 -8.804662 -0 0 26.78664 -24.03693 10.86838 17.62462 1.936169 -15.46732 -1.978306 -89.22195 20.25712 26.16909 0 0 -12.76783 -4.52523 5.124606 18.28067
29.56873 99.12955 278.9222 -0.01413359 -2.605353 -0.519835 2.184999 12.24843 7.99004 -0 37.9704 -0 7.115873 -10.59844 -4.995661 0.05629136 -26.53811 -3.039245 -0 27.90561 -0 -7.708616 -10.79106 15.96347 0.3297185 -6.295631 9.097614 -2.455873 12.34345 -2.861012 2.970834 19.31138 4.38548 0.4409087 -13.74075 6.797827 1.550403 -22.1377 10.21434 80.14789 14.25855 -10.23421 -0 0 25.97511 -23.79111 10.71465 16.60198 1.915225 -14.92782 -1.913456 -88.82459 20.61814 25.63424 0 0 -12.50856 -4.595722 5.017259 18.53552
30.77656 99.82362 285.6785 0.00833766 -2.318625 0.4558912 2.608241 7.738022 7.523093 -0 45.99435 -0 6.894246 -9.186855 -6.041229 -1.049957 -23.0432 -3.872415 -0 28.67576 -0 -7.127846 -12.79185 15.15405 0.1436302 -7.285093 8.443867 -2.459799 12.3421 -3.048967 3.096693 19.87218 4.395194 0.2980498 -13.63168 7.072168 2.095357 -21.06584 10.00959 81.28461 14.10112 -11.77178 -0 0 24.42817 -23.33182 10.70399 15.43161 1.71844 -15.0699 -2.113022 -87.946 21.08448 24.35937 0 0 -12.53336 -4.49794 4.974001 18.57277
